<svg xmlns="http://www.w3.org/2000/svg" viewBox="0 0 160 160" width="160" height="160" role="img" aria-label="Нет фото">
  <rect x="6" y="6" width="148" height="148" rx="22" fill="#ffffff"/>
  <rect x="6" y="6" width="148" height="148" rx="22" fill="none" stroke="#eef2f7" stroke-width="2"/>

  <!-- very soft "photo" hint -->
  <rect x="22" y="30" width="116" height="96" rx="18" fill="#fbfcfe" stroke="#eef2f7" stroke-width="2"/>

  <!-- camera glyph (subtle) -->
  <path d="M60 54h40l7 11h11a10 10 0 0 1 10 10v36a10 10 0 0 1-10 10H42a10 10 0 0 1-10-10V75a10 10 0 0 1 10-10h11z"
        fill="#f5f7fb" stroke="#e6ebf3" stroke-width="2"/>

  <circle cx="80" cy="93" r="18" fill="#ffffff" stroke="#e6ebf3" stroke-width="2"/>
  <circle cx="80" cy="93" r="7" fill="#c9d3e3"/>

  <!-- little shine -->
  <path d="M68 86c4-6 12-9 19-7" fill="none" stroke="#eef2f7" stroke-width="3" stroke-linecap="round"/>

  <!-- keep it very quiet -->
  <g opacity="0.55">
    <rect x="55" y="118" width="50" height="8" rx="4" fill="#f3f6fb"/>
  </g>
</svg>
